# xmcd
#
# Track frame offsets:
#	150
#	10801
#	25017
#	41199
#	53378
#	65433
#	78351
#	92877
#	108169
#	120066
#	133170
#	146180
#	157932
#
# Disc length: 2289 seconds
#
# Revision: 1
# Processed by: cddbd v1.5.1PL0 Copyright (c) Steve Scherf et al.
# Submitted via: audiograbber 1.83.01
#
DISCID=9c08ef0d
DTITLE=Joni Harms - After All
DYEAR=2001
DGENRE=Country
TTITLE0=Weakness For Cowboys
TTITLE1=More Than YourEyes Can See
TTITLE2=Every Cowgirl's Dream
TTITLE3=After All
TTITLE4=Keep On Dreamin'
TTITLE5=West Texas Waltz
TTITLE6=Ay Yi Yi Yi
TTITLE7=Millie
TTITLE8=A Cowboy Wedding
TTITLE9=It'll Happen When It's Time
TTITLE10=Copwboy Coffee
TTITLE11=Sundat Go To Meating Clothes
TTITLE12=I Want To Sing For You
EXTD=
EXTT0=
EXTT1=
EXTT2=
EXTT3=
EXTT4=
EXTT5=
EXTT6=
EXTT7=
EXTT8=
EXTT9=
EXTT10=
EXTT11=
EXTT12=
PLAYORDER=
